<svg xmlns="http://www.w3.org/2000/svg" version="1.1" width="1200px" height="1200px" style="shape-rendering:geometricPrecision; text-rendering:geometricPrecision; image-rendering:optimizeQuality; fill-rule:evenodd; clip-rule:evenodd" xmlns:xlink="http://www.w3.org/1999/xlink">
<g><path fill="#3773f5" d="M -0.5,-0.5 C 399.5,-0.5 799.5,-0.5 1199.5,-0.5C 1199.5,399.5 1199.5,799.5 1199.5,1199.5C 799.5,1199.5 399.5,1199.5 -0.5,1199.5C -0.5,799.5 -0.5,399.5 -0.5,-0.5 Z"/></g>
<g><path fill="#070504" d="M 555.5,185.5 C 598.215,182.962 640.215,187.128 681.5,198C 688.566,200.85 695.566,203.85 702.5,207C 713.91,216.408 723.91,227.075 732.5,239C 756.017,258.841 778.683,279.841 800.5,302C 820.486,317.652 837.319,336.152 851,357.5C 855.202,364.971 857.869,372.971 859,381.5C 862.724,400.256 865.724,419.256 868,438.5C 869.378,478.835 870.711,519.169 872,559.5C 872.269,564.666 873.269,569.666 875,574.5C 878.921,582.594 882.254,590.928 885,599.5C 892.25,610.331 899.25,621.331 906,632.5C 910.232,638.411 914.899,644.077 920,649.5C 920.333,650.5 920.667,651.5 921,652.5C 930.164,662.664 939.664,672.497 949.5,682C 964.167,692.338 979.5,701.671 995.5,710C 1020.2,718.414 1044.86,727.081 1069.5,736C 1079.44,738.943 1086.61,745.11 1091,754.5C 1093.56,759.624 1095.56,764.957 1097,770.5C 1097.67,779.5 1097.67,788.5 1097,797.5C 1096.13,805.738 1092.3,812.238 1085.5,817C 1073.15,825.174 1059.82,831.174 1045.5,835C 1012.8,851.452 978.132,858.452 941.5,856C 927.756,854.918 914.09,853.585 900.5,852C 884.659,851.334 868.826,851.5 853,852.5C 837.415,851.773 821.915,850.606 806.5,849C 798.351,860.144 789.851,870.978 781,881.5C 777.027,885.473 773.027,889.473 769,893.5C 760.333,906.167 751.667,918.833 743,931.5C 732.649,942.35 722.483,953.35 712.5,964.5C 719.852,970.133 728.185,973.966 737.5,976C 754.909,983.535 771.242,992.869 786.5,1004C 790.524,1006.89 792.857,1010.73 793.5,1015.5C 793.565,1020.94 790.899,1024.1 785.5,1025C 714.073,1026.55 643.24,1021.05 573,1008.5C 559.018,1009.52 545.185,1011.52 531.5,1014.5C 539.85,1023.02 548.016,1031.68 556,1040.5C 556.863,1042.75 556.363,1044.58 554.5,1046C 526.298,1049.01 497.964,1049.01 469.5,1046C 447.426,1043.66 425.426,1040.66 403.5,1037C 392.064,1033.97 380.731,1030.64 369.5,1027C 352.002,1019.54 334.335,1012.54 316.5,1006C 273.37,997.974 230.703,988.64 188.5,978C 170.884,970.528 154.884,960.528 140.5,948C 129.004,936.537 117.838,924.703 107,912.5C 102.966,906.039 100.299,899.039 99,891.5C 96.9719,877.931 96.1385,864.264 96.5,850.5C 93.6354,825.631 98.802,802.631 112,781.5C 113.033,774.035 114.699,766.702 117,759.5C 117.333,754.167 117.667,748.833 118,743.5C 119.507,739.302 120.507,734.968 121,730.5C 122.058,714.171 123.058,697.838 124,681.5C 126.06,670.24 127.727,658.907 129,647.5C 134.098,622.206 142.765,598.206 155,575.5C 161.673,556.157 168.34,536.824 175,517.5C 184.934,499.242 195.267,481.242 206,463.5C 213.103,446.625 220.769,429.958 229,413.5C 236.092,393.811 244.092,374.478 253,355.5C 263.333,344.5 273.667,333.5 284,322.5C 301.189,293.655 321.689,267.489 345.5,244C 355.968,237.931 366.301,231.597 376.5,225C 402.913,214.312 429.913,205.312 457.5,198C 489.387,193.348 521.387,189.681 553.5,187C 554.416,186.722 555.082,186.222 555.5,185.5 Z"/></g>
<g><path fill="#fefefe" d="M 639.5,576.5 C 634.821,576.334 630.155,576.501 625.5,577C 623.942,577.21 622.609,577.71 621.5,578.5C 613.129,579.726 604.795,581.226 596.5,583C 574.811,591.679 553.811,601.679 533.5,613C 518.187,621.573 504.02,631.739 491,643.5C 485.88,655.801 486.547,667.801 493,679.5C 500.822,689.145 508.155,699.145 515,709.5C 528.5,723 542,736.5 555.5,750C 563.812,756.822 572.479,763.156 581.5,769C 603.401,781.586 625.734,793.252 648.5,804C 665.726,809.974 683.06,815.64 700.5,821C 731.782,829.211 763.116,837.378 794.5,845.5C 794.657,846.873 794.49,848.207 794,849.5C 791.513,851.809 789.513,854.476 788,857.5C 777,869.833 766,882.167 755,894.5C 740.29,919.212 721.957,940.879 700,959.5C 691.765,956.273 684.265,951.773 677.5,946C 663.258,937.811 648.925,929.811 634.5,922C 625.33,913.832 615.33,906.832 604.5,901C 598.518,896.681 592.851,892.014 587.5,887C 579.663,882.249 571.996,877.249 564.5,872C 544.768,855.257 525.435,838.257 506.5,821C 487.492,809.494 468.158,798.494 448.5,788C 434.967,783.267 421.3,778.934 407.5,775C 370.517,769.514 333.517,769.514 296.5,775C 282.387,779.361 268.387,784.027 254.5,789C 234.638,799.526 217.804,813.692 204,831.5C 199.824,838.694 196.824,846.361 195,854.5C 194.144,865.877 194.478,877.21 196,888.5C 202.215,903.263 209.215,917.597 217,931.5C 225.124,941.959 233.624,952.126 242.5,962C 255.11,970.278 267.444,978.944 279.5,988C 279,988.167 278.5,988.333 278,988.5C 247.528,980.924 217.028,973.424 186.5,966C 171.668,958.752 158.001,949.752 145.5,939C 135.773,928.363 125.94,917.863 116,907.5C 112.171,898.89 109.504,889.89 108,880.5C 107.333,859.833 107.333,839.167 108,818.5C 110.761,806.65 115.427,795.65 122,785.5C 127.358,767.227 130.525,748.56 131.5,729.5C 133.203,718.716 133.87,707.716 133.5,696.5C 136.475,651.587 148.309,609.254 169,569.5C 175.035,547.391 183.035,526.058 193,505.5C 201.003,494.837 208.003,483.503 214,471.5C 220.338,454.793 228.005,438.793 237,423.5C 243.449,402.806 251.449,382.806 261,363.5C 266.182,355.987 272.349,349.487 279.5,344C 295.103,324.627 309.603,304.461 323,283.5C 330.837,275.996 338.337,268.163 345.5,260C 363.202,248.816 381.202,238.149 399.5,228C 419.357,219.951 439.691,213.284 460.5,208C 496.034,203.1 531.7,199.433 567.5,197C 600.688,194.238 633.355,196.904 665.5,205C 673.958,208.282 682.625,210.949 691.5,213C 695.336,215.084 699.003,217.417 702.5,220C 712.741,231.915 723.408,243.581 734.5,255C 744.783,263.942 755.116,272.942 765.5,282C 768.87,285.035 771.87,288.368 774.5,292C 791.756,306.6 808.256,321.766 824,337.5C 829.823,344.479 835.156,351.812 840,359.5C 842.932,365.963 845.265,372.629 847,379.5C 850.884,399.474 854.551,419.474 858,439.5C 859.244,474.837 860.41,510.17 861.5,545.5C 823.58,555.818 785.247,563.985 746.5,570C 718.222,572.488 689.889,573.822 661.5,574C 654.279,575.817 646.946,576.651 639.5,576.5 Z"/></g>
<g><path fill="#060606" d="M 481.5,396.5 C 495.53,396.238 509.53,396.738 523.5,398C 547.663,402.053 570.33,410.053 591.5,422C 598.975,427.308 606.308,432.808 613.5,438.5C 621.019,446.177 626.685,455.011 630.5,465C 632.43,468.832 631.43,471.332 627.5,472.5C 625.209,472.378 623.209,471.545 621.5,470C 614.269,458.768 605.602,448.768 595.5,440C 581.326,430.379 565.993,423.046 549.5,418C 538.003,415.959 526.67,413.292 515.5,410C 488.871,406.993 463.538,411.327 439.5,423C 430.167,427.667 420.833,432.333 411.5,437C 405.143,438.481 402.643,435.981 404,429.5C 409.06,424.887 414.894,421.72 421.5,420C 434.377,413.394 447.377,407.061 460.5,401C 467.542,399.055 474.542,397.555 481.5,396.5 Z"/></g>
<g><path fill="#090909" d="M 756.5,396.5 C 780.887,395.994 805.221,396.828 829.5,399C 833.805,399.903 837.639,401.737 841,404.5C 841.536,406.567 841.036,408.401 839.5,410C 815.167,410.333 790.833,410.667 766.5,411C 748.191,411.222 730.525,414.555 713.5,421C 700.887,426.884 689.387,434.384 679,443.5C 674.026,450.641 668.86,457.641 663.5,464.5C 656.53,466.36 654.03,463.694 656,456.5C 658.333,451.833 660.667,447.167 663,442.5C 673.605,431.279 685.772,422.112 699.5,415C 705.833,412 712.167,409 718.5,406C 731.365,402.925 744.031,399.759 756.5,396.5 Z"/></g>
<g><path fill="#070707" d="M 780.5,520.5 C 761.15,520.726 741.817,520.393 722.5,519.5C 708.527,518.129 696.694,512.463 687,502.5C 680.828,489.496 678.828,475.829 681,461.5C 684.053,453.782 689.219,447.948 696.5,444C 733.776,425.464 773.109,418.464 814.5,423C 818.908,425.07 823.075,427.57 827,430.5C 840.469,451.518 842.135,473.518 832,496.5C 824.913,509.114 814.08,516.28 799.5,518C 793.235,519.42 786.902,520.254 780.5,520.5 Z"/></g>
<g><path fill="#070707" d="M 468.5,426.5 C 492.288,425.984 515.954,427.151 539.5,430C 558.898,435.707 577.564,443.041 595.5,452C 612.349,464.503 619.515,481.336 617,502.5C 612.898,514.268 605.064,522.435 593.5,527C 578.976,532.38 563.976,535.714 548.5,537C 525.207,536.702 502.207,533.702 479.5,528C 460.434,522.075 445.934,510.575 436,493.5C 429.292,479.222 428.958,464.889 435,450.5C 444.173,439.461 455.339,431.461 468.5,426.5 Z"/></g>
<g><path fill="#f7f7f7" d="M 769.5,432.5 C 781.838,432.333 794.171,432.5 806.5,433C 816.817,435.988 822.983,442.821 825,453.5C 827.788,468.077 826.121,482.077 820,495.5C 816.501,500.66 811.667,503.827 805.5,505C 796.958,507.308 788.291,508.975 779.5,510C 763.167,510.667 746.833,510.667 730.5,510C 699.527,507.829 687.027,491.662 693,461.5C 695.5,459 698,456.5 700.5,454C 722.389,442.95 745.389,435.783 769.5,432.5 Z"/></g>
<g><path fill="#f7f7f7" d="M 473.5,436.5 C 513.429,433.734 551.096,441.568 586.5,460C 595.302,465.797 601.469,473.631 605,483.5C 608.079,497.282 603.912,508.116 592.5,516C 548.815,528.764 505.815,526.431 463.5,509C 459.966,505.131 456.133,501.631 452,498.5C 432.524,468.359 439.691,447.692 473.5,436.5 Z"/></g>
<g><path fill="#030303" d="M 701.5,481.5 C 701.54,476.807 701.873,472.141 702.5,467.5C 702.848,464.981 704.181,463.147 706.5,462C 712.744,458.476 719.077,455.143 725.5,452C 739.125,448.077 752.791,444.41 766.5,441C 776.481,439.844 786.481,439.511 796.5,440C 814.123,446.411 821.623,458.911 819,477.5C 818.317,485.907 814.484,492.407 807.5,497C 798.234,499.1 788.901,500.766 779.5,502C 764.5,502.667 749.5,502.667 734.5,502C 728.06,500.651 721.727,498.984 715.5,497C 709.06,493.315 704.393,488.148 701.5,481.5 Z"/></g>
<g><path fill="#030303" d="M 470.5,447.5 C 489.62,446.822 508.62,447.988 527.5,451C 541.237,454.802 554.903,458.802 568.5,463C 577.973,467.821 586.473,473.987 594,481.5C 596.865,487.691 597.199,494.024 595,500.5C 593.167,503.667 590.667,506.167 587.5,508C 582.757,509.47 578.091,511.136 573.5,513C 552.933,515.488 532.266,516.155 511.5,515C 499.629,512.745 487.962,509.745 476.5,506C 464.949,501.116 456.782,492.949 452,481.5C 450.14,465.539 456.306,454.205 470.5,447.5 Z"/></g>
<g><path fill="#f6f6f6" d="M 778.5,463.5 C 793.259,462.741 798.259,469.241 793.5,483C 787.922,486.301 781.922,487.301 775.5,486C 770.684,481.945 769.184,476.778 771,470.5C 773.396,467.933 775.896,465.6 778.5,463.5 Z"/></g>
<g><path fill="#4e4e4e" d="M 702.5,467.5 C 701.873,472.141 701.54,476.807 701.5,481.5C 700.109,476.738 700.442,472.072 702.5,467.5 Z"/></g>
<g><path fill="#f7f7f7" d="M 543.5,475.5 C 552.117,474.056 557.95,477.389 561,485.5C 562.416,492.835 559.583,497.668 552.5,500C 548.5,500.667 544.5,500.667 540.5,500C 538.29,498.491 536.457,496.658 535,494.5C 534.333,490.833 534.333,487.167 535,483.5C 537.579,480.479 540.413,477.812 543.5,475.5 Z"/></g>
<g><path fill="#6d6d6d" d="M 722.5,519.5 C 741.817,520.393 761.15,520.726 780.5,520.5C 763.672,521.662 746.672,521.828 729.5,521C 726.964,520.814 724.631,520.314 722.5,519.5 Z"/></g>
<g><path fill="#e97300" d="M 856.5,840.5 C 853.375,841.479 850.042,841.813 846.5,841.5C 840.642,841.822 834.975,841.489 829.5,840.5C 824.75,838.969 819.75,838.302 814.5,838.5C 803.799,836.66 793.133,834.493 782.5,832C 747.521,823.257 712.854,813.59 678.5,803C 663.609,797.925 648.942,792.258 634.5,786C 616.5,776 598.5,766 580.5,756C 572.212,750.047 564.212,743.714 556.5,737C 544.629,725.328 533.129,713.495 522,701.5C 514.085,690.004 506.418,678.338 499,666.5C 498.139,660.415 498.473,654.415 500,648.5C 503.858,645.303 507.691,642.137 511.5,639C 521.757,633.734 531.757,628.067 541.5,622C 559.887,608.404 580.221,598.404 602.5,592C 619.472,588.672 636.472,585.672 653.5,583C 683.534,582.297 713.534,580.964 743.5,579C 767.503,575.499 791.503,571.832 815.5,568C 831.179,565.413 846.513,561.58 861.5,556.5C 862.064,565.425 863.898,574.092 867,582.5C 876.733,607.974 890.066,631.308 907,652.5C 917.536,663.367 927.702,674.534 937.5,686C 955.484,699.316 974.484,710.983 994.5,721C 1017.08,728.379 1039.42,736.379 1061.5,745C 1075.99,749.154 1084.49,758.654 1087,773.5C 1087.67,780.833 1087.67,788.167 1087,795.5C 1085.46,801.412 1082.3,806.245 1077.5,810C 1056.32,820.052 1034.65,829.052 1012.5,837C 982.772,846.902 952.439,849.235 921.5,844C 868.108,835.57 817.108,819.57 768.5,796C 752.988,788.382 737.655,780.382 722.5,772C 707.167,761 691.833,750 676.5,739C 665.094,733.914 655.094,726.914 646.5,718C 636.356,712.528 627.356,705.528 619.5,697C 616.536,695.027 613.369,693.527 610,692.5C 607.147,692.834 605.647,694.501 605.5,697.5C 607.379,701.553 609.879,705.22 613,708.5C 617.167,712 621.333,715.5 625.5,719C 645.793,732.819 666.46,746.153 687.5,759C 697.14,767.151 707.14,774.818 717.5,782C 735.171,790.439 752.505,799.439 769.5,809C 797.629,822.108 826.629,832.608 856.5,840.5 Z"/></g>
<g><path fill="#696969" d="M 639.5,576.5 C 633.669,577.415 627.669,578.082 621.5,578.5C 622.609,577.71 623.942,577.21 625.5,577C 630.155,576.501 634.821,576.334 639.5,576.5 Z"/></g>
<g><path fill="#080300" d="M 797.5,606.5 C 801.503,606.971 804.669,608.971 807,612.5C 811.899,621.631 818.233,629.631 826,636.5C 826.981,639.557 825.981,641.557 823,642.5C 813.77,640.885 805.77,636.885 799,630.5C 794.018,622.579 793.518,614.579 797.5,606.5 Z"/></g>
<g><path fill="#070707" d="M 471.5,610.5 C 477.989,609.632 480.489,612.299 479,618.5C 467.124,625.045 457.124,633.712 449,644.5C 444.278,653.197 444.945,661.53 451,669.5C 457.627,677.796 464.627,685.796 472,693.5C 473.139,697.811 471.472,699.811 467,699.5C 463.767,699.3 460.933,698.133 458.5,696C 445.455,685.07 437.788,671.237 435.5,654.5C 435.939,647.612 438.106,641.278 442,635.5C 450.507,625.484 460.341,617.151 471.5,610.5 Z"/></g>
<g><path fill="#060200" d="M 664.5,619.5 C 666.484,619.383 668.15,620.05 669.5,621.5C 677.011,635.345 685.344,648.678 694.5,661.5C 693.33,663.255 691.663,664.255 689.5,664.5C 675.549,660.952 665.716,652.619 660,639.5C 659.283,633.775 659.616,628.109 661,622.5C 662.145,621.364 663.312,620.364 664.5,619.5 Z"/></g>
<g><path fill="#0a0a0a" d="M 398.5,631.5 C 400.527,631.338 402.527,631.505 404.5,632C 405.894,632.956 406.561,634.289 406.5,636C 402.666,640.853 399.166,646.02 396,651.5C 395.333,655.5 395.333,659.5 396,663.5C 398.288,668.581 400.455,673.748 402.5,679C 402.262,682.071 400.596,683.571 397.5,683.5C 395.088,683.594 393.255,682.594 392,680.5C 384.137,669.313 382.471,657.313 387,644.5C 390.67,639.998 394.503,635.665 398.5,631.5 Z"/></g>
<g><path fill="#afafaf" d="M 133.5,696.5 C 133.87,707.716 133.203,718.716 131.5,729.5C 131.839,718.327 132.506,707.327 133.5,696.5 Z"/></g>
<g><path fill="#fcfcfc" d="M 780.5,1013.5 C 758.006,1014.5 735.339,1014.83 712.5,1014.5C 662.744,1011.49 613.411,1004.99 564.5,995C 550.361,991.041 536.361,986.708 522.5,982C 509.237,975.347 495.904,968.68 482.5,962C 470.737,958.069 467.237,961.569 472,972.5C 475.05,976.095 478.216,979.595 481.5,983C 498.013,994.514 512.18,1008.35 524,1024.5C 528.982,1028.31 533.482,1032.65 537.5,1037.5C 488.5,1038.22 440.166,1033.05 392.5,1022C 365.886,1013.13 339.553,1003.46 313.5,993C 287.331,981.503 264.164,965.67 244,945.5C 232.172,929.18 220.839,912.513 210,895.5C 202.758,873.016 205.091,851.683 217,831.5C 222.636,826.288 228.47,821.455 234.5,817C 236.213,815.622 237.547,813.955 238.5,812C 271.656,789.68 308.323,779.846 348.5,782.5C 395.016,781.509 438.349,792.675 478.5,816C 485.332,820.584 492.332,824.917 499.5,829C 505.167,833.333 510.167,838.333 514.5,844C 528.725,854.956 542.391,866.622 555.5,879C 578.167,895 600.833,911 623.5,927C 642.704,937.093 661.037,948.426 678.5,961C 705.287,973.891 732.287,986.558 759.5,999C 766.403,1004.09 773.403,1008.92 780.5,1013.5 Z"/></g>
<g><path fill="#090909" d="M 320.5,810.5 C 361.756,806.891 401.089,813.724 438.5,831C 455.462,840.148 472.129,849.815 488.5,860C 505.558,872.57 521.558,886.57 536.5,902C 547.787,910.286 558.787,918.952 569.5,928C 586.582,938.958 603.749,949.792 621,960.5C 622.203,964.963 620.536,967.63 616,968.5C 612.791,967.48 609.624,966.314 606.5,965C 593.833,957 581.167,949 568.5,941C 541.161,919.318 514.161,897.318 487.5,875C 470.972,863.57 453.972,852.903 436.5,843C 399.242,825.122 359.908,817.788 318.5,821C 314.285,816.678 314.952,813.178 320.5,810.5 Z"/></g>
<g><path fill="#924802" d="M 814.5,838.5 C 819.75,838.302 824.75,838.969 829.5,840.5C 824.269,840.556 819.269,839.889 814.5,838.5 Z"/></g>
<g><path fill="#5a2c00" d="M 856.5,840.5 C 858.379,840.393 858.712,840.893 857.5,842C 853.642,842.81 849.976,842.643 846.5,841.5C 850.042,841.813 853.375,841.479 856.5,840.5 Z"/></g>
<g><path fill="#070707" d="M 247.5,867.5 C 250.325,867.081 252.491,868.081 254,870.5C 257.145,877.456 260.811,884.123 265,890.5C 272.333,900.5 279.667,910.5 287,920.5C 292.297,926.622 298.13,932.122 304.5,937C 322.309,948.795 340.643,959.795 359.5,970C 382.876,980.689 406.876,989.689 431.5,997C 438.355,998.971 445.355,1000.3 452.5,1001C 458.126,1003.49 458.792,1006.82 454.5,1011C 448.807,1011.41 443.141,1011.07 437.5,1010C 423.539,1005.67 409.539,1001.34 395.5,997C 376.916,988.214 357.916,980.214 338.5,973C 320.66,961.247 302.994,949.247 285.5,937C 277.961,929.13 270.794,920.963 264,912.5C 257.16,901.49 250.826,890.156 245,878.5C 243.813,874.217 244.647,870.55 247.5,867.5 Z"/></g>
<g><path fill="#080808" d="M 308.5,875.5 C 327.404,874.855 346.07,876.689 364.5,881C 396.14,888.658 427.14,898.325 457.5,910C 479.5,920.667 501.5,931.333 523.5,942C 526.667,944.5 529.833,947 533,949.5C 533.833,955.333 531.333,957.833 525.5,957C 515.093,950.465 504.427,944.465 493.5,939C 470.258,927.05 446.258,916.716 421.5,908C 401.335,902.917 381.335,897.251 361.5,891C 344.161,888.531 326.828,886.197 309.5,884C 306.001,881.514 305.668,878.681 308.5,875.5 Z"/></g>
<g><path fill="#f2f2f2" d="M 498.5,981.5 C 498.56,980.957 498.893,980.624 499.5,980.5C 501.359,982.192 503.359,983.692 505.5,985C 519.353,989.616 533.02,994.616 546.5,1000C 543.861,1001.95 540.861,1002.95 537.5,1003C 531.472,1003.83 525.472,1003.66 519.5,1002.5C 512.146,995.812 505.146,988.812 498.5,981.5 Z"/></g>
<g><path fill="#929292" d="M 780.5,1013.5 C 781.043,1013.56 781.376,1013.89 781.5,1014.5C 758.337,1015.83 735.337,1015.83 712.5,1014.5C 735.339,1014.83 758.006,1014.5 780.5,1013.5 Z"/></g>
</svg>